<svg xmlns="http://www.w3.org/2000/svg" xmlns:xlink="http://www.w3.org/1999/xlink" id="Layer_1" x="0px" y="0px" width="128px" height="128px" viewBox="0 0 128 128" style="enable-background:new 0 0 128 128;" xml:space="preserve">
<style type="text/css">
	.st0{fill:#F0624B;}
	.st1{fill:#F1634C;}
</style>
<g>
	<g>
		<g>
			<path class="st0" d="M119.1,55.1c2-1.3,3.9-2.8,4.7-3.4c0.5-0.4,0.3-0.9-0.5-0.8c-1.8,0.1-3.7,0.6-6,1.2     c-1.4,0.4-4.7,1.3-4.9,2.3c-0.2,0.9,0.2,1.5,0.6,2.7c0.4,1.2,0.1,3.1-0.7,4.9C116.6,59.8,116.1,57.2,119.1,55.1z"></path>
		</g>
		<g>
			<path class="st0" d="M108.5,55.1c-2.3,0.2-5.1,0.3-9.5,1.8c-4,1.3-6.3,2.4-7.8,4.5c-1.9,2.6-2.9,6.8-3.3,9     c-0.3,1.8-0.9,5.6-1,6.3c0.1,2.5-0.7,4.6-2.5,5.5c-2.9,1.6-3.8,3.1-3.9,4.3c0,1.1,0.7,2.2,1.6,2.8c1.3,0.9,1.9-0.4,1.9-0.4     s0.6,1.3,0.8,1.3c1.9,0.4,4.3,0.9,6.3-0.7C89.2,88,88.2,87,88.2,87s1.9,0.7,3.3,1.9c0.5-0.3,2.5-2.7,2.8-3.3     c-1.6-0.9-3.1-1.9-3.1-1.9s2.1,0.4,3.8,1c0.4-0.3,1.9-3.6,2-4.1c-1-0.5-2.6-1.3-2.6-1.3s2.1,0.2,3.2,0.5c0.3-1.3,0.2-2.3,0-2.9     c0.3-0.5-0.1-2.7,0.4-3.7c2.3-5,3.7-4.3,6-6c1-0.8,1.9-4.1,1.9-4.1s0.3,0.1,0.4,0.4s0.3,1,0.3,1s2.2-3.7,2.4-5.6     C109.3,56.5,108.5,55.1,108.5,55.1z M95.3,68.1c-1.2,0.3-2.3,1.5-2.6,1.5c-0.2,0-0.3-1.1-0.6-1.6c-0.3-0.5-0.6-0.7-0.7-1.2     c-0.3-1.5-0.2-2.2,0.5-3.2c0.9-1.2,1.2-1.9,3.8-2.3c1.5-0.2,5.2-1,5.2-1s-0.4,1.4-1.5,2.6C97.9,64.5,97.4,67.5,95.3,68.1z"></path>
		</g>
		<g>
			<path class="st0" d="M96.4,65.8c-0.2-1.3,0-2.6-1.9-2.1c-1,0.2-1.9,1-1.9,2.1c0,1.2,0.8,2.1,1.9,2.1     C95.6,67.9,96.6,66.9,96.4,65.8z M94.2,66.5c-0.1,0-0.2-0.1-0.2-0.2c0-0.1,0.1-0.2,0.2-0.2c0.1,0,0.2,0.1,0.2,0.2     C94.4,66.4,94.3,66.5,94.2,66.5z M94.9,66.6c-0.1,0-0.2-0.1-0.2-0.3c0-0.1,0.1-0.3,0.2-0.3c0.1,0,0.2,0.1,0.2,0.3     C95.1,66.5,95,66.6,94.9,66.6z M94.6,66.2c-0.2,0-0.4-0.2-0.4-0.6c0-0.3,0.2-0.6,0.4-0.6c0.2,0,0.4,0.2,0.4,0.6     C95.1,65.9,94.9,66.2,94.6,66.2z"></path>
		</g>
		<g>
			<path class="st0" d="M80.5,83.5c0.4-0.2,1.4-0.9,1.2-1.3c-0.5-1.6,0.8-3.6,1.9-4c0.5-0.1,0.1,2.3-0.7,3c-0.5,0.5-0.4,0.9-0.2,0.8     c3.3-2.1,3-4.1,2.4-5c-0.5-0.8-1.5-1-3-1.1c-1.3-0.1-2.7-0.1-2.7-0.1v7.9C79.5,83.7,79.9,83.7,80.5,83.5z"></path>
		</g>
		<g>
			<path class="st0" d="M121.8,54.5c0,0-2.5,1.4-3.8,3.7c-2.5,4.5-6.3,5.4-7.4,5.7c-0.1-1,1.7-4.1,1.3-6.4c-0.4-2-1.6-2.1-0.5-3.9     c0.6-1.1,3.2-2,5.6-2.6c0.6-0.1,1.8-0.4,2.1-0.5c1.5-0.3,2.4-0.4,3.1-1.3c0.7-0.8,0.5-1.7,0.5-1.7s-1.4,0.6-2.9-0.4     c-1.9-1.2,0.4-3.3-2.9-6.3c-2-1.8-4.7-1.4-4.7-1.4s1.6-1.1,3.5-1c1.8,0.1,3.1,0.4,5,2.7c-1-4.6-3.3-6.3-5.6-7.5     c-2.2-1.2-5.7-1.5-8.1-1.3c0,0,0.9-1.2,2.5-1.7c2.2-0.7,3.6-0.5,4.7-0.1c-0.8-1.6-3.7-3-7.7-3.2c-4.7-0.3-8.7,1.4-8.7,1.4     S97.4,27.9,99,27c2-1.2,4.5-1.4,5.6-1c-0.7-0.9-3.7-2.4-9-1.5c-3.3,0.5-4.7,1.1-4.7,1.1s0.1-0.9,0.8-1.5c0.7-0.6,1.7-0.9,2.5-1     c-0.5-0.4-3.6-0.7-6.6-0.9c-3.8-0.3-8.2-0.3-8.2-0.3V31l0,29.8v5.3l0,8.8c0,0,0.5,0,1,0c0.1,0,0.3-1.4,0.3-1.4s0.3,0.6,0.2,1.4     c0.5,0,0.9,0,1.6,0.1c0.6,0,0.9,0,1.4,0.1c0.3-0.5,0.7-5.5,0.7-5.5s0.6,2.5,0.1,5.7c0.5,0.2,0.8,0.5,0.8,0.5s0.6-3.5,1.3-7     c0-0.2,0.1-0.3,0.1-0.5c0,0,0,0,0-0.1c0-0.2,0.1-0.4,0.1-0.5c0,0,0-0.1,0-0.1c0-0.1,0.1-0.3,0.1-0.4c0,0,0-0.1,0-0.1     c0-0.2,0.1-0.3,0.1-0.5c0,0,0,0,0,0c0.2-0.7,0.3-1.4,0.5-2c0.9-3.4,2.7-5.7,5.7-7.1c3.1-1.4,4.7-2.1,8.9-2.9     c2.8-0.5,4.3-0.7,7-0.7c1.5,3.7,0.7,7.3-1.7,10.9c-1,1.6-1.4,3-2.7,4.5c-0.3,0.3-2.7,1-3.1,1.4c-0.5,0.4-3,6.6-2.8,8.6     c-0.1,0.3-0.1,0.6-0.2,0.9c0.7,0.2,2,0.6,3.3,1c3.1,1.1,6.2,2.5,6,2.6c0,0-3.7-1-5.8-1.7c-1.7-0.5-3-0.8-3.7-0.9     c-0.4,1.3-1,2.8-1.7,4.2c0.3,0.1,0.7,0.3,1.2,0.5c2.1,0.9,5.2,3,5.2,3s-2.5-1-5.5-2c-0.6-0.2-1.1-0.4-1.5-0.5     c-0.4,0.6-0.7,1.1-1.2,1.6c-0.4,0.5-1,1.3-1.9,2.1c0.2,0.2,0.5,0.3,0.7,0.5c0.7,0.5,2.8,2.5,2.8,2.5s-2.1-1.2-2.9-1.7     c-0.4-0.2-0.8-0.5-1.1-0.7c-0.9,0.8-2.1,1.6-3.7,2.3c-1.9,0.8-3.3-0.6-5.1-1.2c-1.8-0.7-3.3-1.2-3.3-1.2l-1.1-0.1v3.7     c0,0,0,0,0,0c0.6,0,1.2,0,1.8,0c0.6,0,1.2,0,1.8-0.2c-0.2,0.3-0.5,0.4-0.8,0.6c-0.3,0.1-0.6,0.3-0.9,0.3     c-0.6,0.2-1.3,0.2-1.9,0.2c0,0,0,0,0,0v11.4c0,0,1.8-1.3,4.3-8.2c0.4,1.7-0.4,5.2-0.4,5.2s3.6-3,3.9-6.2c0.6,1.2,0.2,2.2,0,3.9     c2.8-1.8,5.6-5.5,7.4-8c-0.2,1.1-0.4,2.4-0.5,3.8c0.8-1.4,2.5-2.7,3.7-3.3c1.3-0.6,2.3-3.2,2.3-3.6c0.3,0.4,0.1,2.6,0.1,2.6     s3.8-1.6,5.5-3.3c1.5-1.5,2.5-2.2,3.2-3.7c0.8-1.7,0.4-4.4-0.1-5.6c0,0,1.1,0.9,1.4,2.6c0.4,2.1,0.2,3.3,0.2,3.3     s7.6-5.1,6.7-14.8c-0.1-1.3-1-4.3-1-4.3s1.1,0.9,1.5,2.4c0.6,1.7,0.5,3.1,0.5,3.1s2.1-3.5,2.4-6.9c0.5-5.4,0.1-7.2,0.1-7.2     s0.4,0.3,0.7,0.9c0.2,0.4,0.4,1,0.4,1.7c0.4-0.3,0.8-2.3,0.6-4.4C122.3,54.8,121.8,54.5,121.8,54.5z M85.5,39.5     c0.2-1.5,0.7-2.9,1.2-4.3c0.5-1.4,1.3-2.7,2.2-3.9c0.9-1.2,2-2.2,3.2-3.1l0.1,0.1c-1.1,1-2,2.1-2.8,3.3c-0.8,1.2-1.4,2.5-1.8,3.9     c-0.4,1.4-0.6,2.8-1,4.2c-0.3,1.4-0.6,2.8-0.9,4.3l-0.1,0C85.2,42.5,85.3,41,85.5,39.5z M92.8,42.4c-2,2-3.7,4.1-5,6.6     c-1.3,2.4-2.2,5-3,7.7c-0.9,2.6-1.6,5.3-2.2,8l-0.1,0c0-1.4,0.2-2.8,0.5-4.2c0.2-1.4,0.6-2.8,0.9-4.1c0.8-2.7,1.9-5.3,3.3-7.8     c1.4-2.5,3.3-4.6,5.3-6.5c2.1-1.9,4.3-3.6,6.7-5l0,0.1C96.9,38.7,94.8,40.5,92.8,42.4z M109.5,44.4c-1.8,0.4-3.5,1-5.1,1.9     c-1.6,0.9-2.9,2.1-4.3,3.3c-1.4,1.2-2.6,2.5-3.9,3.9l-0.1-0.1c0.4-0.8,1-1.6,1.5-2.4c0.6-0.7,1.2-1.5,1.8-2.1     c1.3-1.3,2.9-2.4,4.6-3.3c1.7-0.8,3.5-1.4,5.4-1.7c1.8-0.3,3.7-0.4,5.6-0.2l0,0.1C113.2,43.8,111.3,44,109.5,44.4z"></path>
		</g>
	</g>
	<g>
		<path class="st1" d="M9.6,43.3c-1.4,0-2.6-0.3-3.4-0.9c-0.8-0.6-1.4-1.5-1.8-2.6C4,38.7,3.9,37.5,3.9,36v-7.1    c0-1.5,0.2-2.8,0.6-3.9c0.4-1.1,1-1.9,1.9-2.5c0.9-0.6,2.2-0.9,3.7-0.9c1.5,0,2.7,0.3,3.6,0.8c0.9,0.5,1.5,1.2,1.9,2.1    c0.4,0.9,0.6,2,0.6,3.3V29h-4.2v-1.5c0-0.6,0-1.1-0.1-1.5c-0.1-0.4-0.2-0.8-0.5-1c-0.3-0.2-0.7-0.4-1.2-0.4c-0.6,0-1,0.1-1.3,0.4    c-0.3,0.3-0.4,0.7-0.5,1.1c-0.1,0.5-0.1,1-0.1,1.5v9.4c0,0.6,0.1,1.1,0.2,1.6c0.1,0.5,0.3,0.8,0.6,1.1c0.3,0.3,0.7,0.4,1.2,0.4    c0.5,0,1-0.1,1.3-0.4c0.3-0.3,0.5-0.7,0.6-1.1c0.1-0.5,0.2-1,0.2-1.6v-2.3h-2.1v-2.6h6V43h-2.8l-0.3-1.9c-0.3,0.6-0.7,1.2-1.3,1.6    C11.3,43.1,10.6,43.3,9.6,43.3z"></path>
		<path class="st1" d="M25.1,43.3c-1.6,0-2.8-0.3-3.7-0.8c-0.9-0.6-1.6-1.4-2-2.4c-0.4-1-0.6-2.3-0.6-3.7v-7.9    c0-1.5,0.2-2.7,0.6-3.7c0.4-1,1-1.8,2-2.4c0.9-0.5,2.1-0.8,3.7-0.8c1.6,0,2.8,0.3,3.7,0.8s1.6,1.3,2,2.4c0.4,1,0.6,2.3,0.6,3.7    v7.9c0,1.5-0.2,2.7-0.6,3.7c-0.4,1-1,1.8-2,2.4C27.9,43,26.7,43.3,25.1,43.3z M25.1,40.2c0.6,0,1-0.1,1.2-0.4    c0.3-0.3,0.4-0.6,0.5-1c0.1-0.4,0.1-0.9,0.1-1.4v-10c0-0.5,0-0.9-0.1-1.4c-0.1-0.4-0.3-0.8-0.5-1c-0.3-0.3-0.7-0.4-1.2-0.4    c-0.5,0-0.9,0.1-1.2,0.4c-0.3,0.3-0.4,0.6-0.5,1c-0.1,0.4-0.1,0.9-0.1,1.4v10c0,0.5,0,0.9,0.1,1.4c0.1,0.4,0.2,0.8,0.5,1    C24.2,40.1,24.6,40.2,25.1,40.2z"></path>
		<path class="st1" d="M34.3,43V21.8h5.2c1.8,0,3.2,0.2,4.2,0.7c1,0.5,1.7,1.2,2.1,2.2c0.4,1,0.6,2.3,0.6,3.8v7.7    c0,1.6-0.2,2.9-0.6,3.9c-0.4,1-1.1,1.8-2.1,2.2c-1,0.5-2.4,0.7-4.1,0.7H34.3z M38.6,40h0.9c0.8,0,1.4-0.1,1.7-0.4    c0.3-0.3,0.6-0.6,0.6-1.1C42,38,42,37.4,42,36.6v-8.8c0-0.7-0.1-1.3-0.2-1.8c-0.1-0.4-0.3-0.8-0.7-1c-0.3-0.2-0.9-0.3-1.7-0.3    h-0.9V40z"></path>
		<path class="st1" d="M55.2,43.3c-1.6,0-2.8-0.3-3.7-0.8c-0.9-0.6-1.6-1.4-2-2.4c-0.4-1-0.6-2.3-0.6-3.7v-7.9    c0-1.5,0.2-2.7,0.6-3.7c0.4-1,1-1.8,2-2.4c0.9-0.5,2.1-0.8,3.7-0.8c1.6,0,2.8,0.3,3.7,0.8c0.9,0.6,1.6,1.3,2,2.4    c0.4,1,0.6,2.3,0.6,3.7v7.9c0,1.5-0.2,2.7-0.6,3.7c-0.4,1-1,1.8-2,2.4C58,43,56.8,43.3,55.2,43.3z M55.2,40.2c0.6,0,1-0.1,1.2-0.4    c0.3-0.3,0.4-0.6,0.5-1c0.1-0.4,0.1-0.9,0.1-1.4v-10c0-0.5,0-0.9-0.1-1.4c-0.1-0.4-0.3-0.8-0.5-1c-0.3-0.3-0.7-0.4-1.2-0.4    c-0.5,0-0.9,0.1-1.2,0.4c-0.3,0.3-0.4,0.6-0.5,1c-0.1,0.4-0.1,0.9-0.1,1.4v10c0,0.5,0,0.9,0.1,1.4c0.1,0.4,0.2,0.8,0.5,1    C54.3,40.1,54.7,40.2,55.2,40.2z"></path>
		<path class="st1" d="M66.2,43V25H63v-3.2h10.9V25h-3.2v18H66.2z"></path>
		<path class="st1" d="M25.4,74.5l-2.8-21.2h3.7l1.5,13l1.9-13h2.9l1.9,12.9l1.5-13h3.6l-2.7,21.2h-3.7L31.2,61l-2,13.4H25.4z"></path>
		<path class="st1" d="M42,74.5V53.2h4.3v21.2H42z"></path>
		<path class="st1" d="M49.5,74.5V53.2h4.3v18.3h5v2.9H49.5z"></path>
		<path class="st1" d="M60.7,74.5V53.2h5.2c1.8,0,3.2,0.2,4.2,0.7c1,0.5,1.7,1.2,2.1,2.2c0.4,1,0.6,2.3,0.6,3.8v7.7    c0,1.6-0.2,2.9-0.6,3.9c-0.4,1-1.1,1.8-2.1,2.2c-1,0.5-2.4,0.7-4.1,0.7H60.7z M65,71.5h0.9c0.8,0,1.4-0.1,1.7-0.4    c0.3-0.3,0.6-0.6,0.6-1.1c0.1-0.5,0.1-1.1,0.1-1.8v-8.8c0-0.7-0.1-1.3-0.2-1.8c-0.1-0.4-0.3-0.8-0.7-1c-0.3-0.2-0.9-0.3-1.7-0.3    H65V71.5z"></path>
		<path class="st1" d="M33.5,106.5v-3c0.5,0,0.9,0,1.3-0.1c0.3-0.1,0.6-0.2,0.8-0.3c0.2-0.2,0.3-0.4,0.4-0.7    c0.1-0.3,0.1-0.7,0.1-1.2V84.7h4.3v16.5c0,1.2-0.1,2.1-0.4,2.9c-0.3,0.8-0.8,1.4-1.5,1.7c-0.7,0.4-1.7,0.6-3,0.6H33.5z"></path>
		<path class="st1" d="M42.6,105.9l4.1-21.2h4.8l4.1,21.2h-4l-0.8-4.7h-3.4l-0.8,4.7H42.6z M47.9,98.6h2.5L49.1,90L47.9,98.6z"></path>
		<path class="st1" d="M57.7,105.9L58,84.7h4.6l2.6,13.4L68,84.7h4.4l0.4,21.2h-3.1l-0.3-14.4l-2.7,14.4H64l-2.8-14.5l-0.3,14.5    H57.7z"></path>
	</g>
</g>
</svg>