<svg xmlns="http://www.w3.org/2000/svg" xmlns:xlink="http://www.w3.org/1999/xlink" id="Layer_1" x="0px" y="0px" viewBox="0 0 1000 1000" style="enable-background:new 0 0 1000 1000;" xml:space="preserve">
<style type="text/css">
	.st0{fill:#FA6149;}
	.st1{fill:#F1634C;}
	.st2{fill:#F0624B;}
</style>
<g>
	<path class="st0" d="M699.9,375.6c4.9-11,6.7-22.5,4.5-29.8s-4.8-11-3.5-16.7c1.3-5.7,21.4-11.5,29.8-13.8   c13.7-3.7,25.7-6.5,36.4-7.2c5-0.3,6.5,2.4,3.2,4.9c-5.2,4-16.3,12.7-28.6,20.8C723.1,346.1,726.6,362.3,699.9,375.6z M680,357.2   c-1.4,11.3-14.9,33.9-14.9,33.9s-1-3.8-1.6-6c-0.6-2.2-2.3-2.6-2.3-2.6s-5.1,20.1-11.4,25c-13.9,10.7-22.7,6.4-36.5,36.6   c-2.9,6.3-0.5,19.7-2.5,22.7c1.1,3.3,2.2,9.2,0.1,17.3c-6.8-2.1-19.7-3.3-19.7-3.3s9.8,4.9,16.1,8.1c-0.6,3.3-9.8,22.9-12.2,25   c-10.3-3.9-22.9-6.4-22.9-6.4s9,5.6,18.7,11.3c-1.5,3.7-13.8,18.7-16.7,20.3c-8.6-7.5-20.3-11.7-20.3-11.7s6.2,6.4,17.3,16.2   c-12.1,9.4-27,6.5-38.4,4.2c-1.2-0.2-5.1-7.9-5.1-7.9s-3.3,7.6-11.3,2.1c-5-3.5-9.7-10.1-9.4-16.9c0.3-7.3,5.9-16.7,23.6-26.3   c10.7-5.8,15.8-18.6,15.1-33.5c0.7-4.5,4.1-27.8,6.1-38.5c2.6-13.2,8.7-38.9,20.1-54.8c9.5-13.1,23.3-19.4,47.6-27.4   c27-8.9,43.6-9.4,57.8-10.9C677.2,333.5,681.8,342.1,680,357.2z M622.2,380.5c6.7-7.1,9.1-15.8,9.1-15.8s-22.2,4.7-31.3,6.1   c-15.9,2.5-17.7,6.5-23.2,14c-4.3,5.8-4.8,10.1-3.1,19.4c0.5,2.8,2.5,4.2,4.1,7.3c1.9,3.5,2.3,10,3.5,9.9c1.7-0.2,8.3-6.9,15.6-9   C609.6,408.9,612.6,390.6,622.2,380.5z M592.6,411.2c-6.3,0-11.3-5.8-11.3-12.9c0-7.1,5.2-11.6,11.3-12.9   c11.3-2.6,10,4.8,11.3,12.9C605.1,405.3,598.9,411.2,592.6,411.2z M591.4,401.6c0-0.5-0.4-1-1-1c-0.5,0-1,0.4-1,1c0,0.5,0.4,1,1,1   C591,402.6,591.4,402.2,591.4,401.6z M595.6,401.8c0-0.9-0.5-1.5-1.1-1.5s-1.1,0.7-1.1,1.5c0,0.9,0.5,1.5,1.1,1.5   S595.6,402.6,595.6,401.8z M595.6,397.3c0-1.9-1.2-3.4-2.7-3.4c-1.5,0-2.7,1.5-2.7,3.4c0,1.9,1.2,3.4,2.7,3.4   C594.4,400.6,595.6,399.1,595.6,397.3z M301.8,375.6c-4.9-11-6.7-22.5-4.5-29.8c2.3-7.4,4.8-11,3.5-16.7   c-1.3-5.7-21.4-11.5-29.8-13.8c-13.7-3.7-25.7-6.5-36.4-7.2c-5-0.3-6.5,2.4-3.2,4.9c5.2,4,16.3,12.7,28.6,20.8   C278.6,346.1,275.2,362.3,301.8,375.6z M324.6,333.5c14.2,1.5,30.8,2,57.8,10.9c24.3,8,38.1,14.3,47.6,27.4   c11.4,15.9,17.6,41.6,20.1,54.8c2.1,10.7,5.4,34.1,6.1,38.5c-0.7,14.9,4.3,27.7,15.1,33.5c17.7,9.6,23.3,19,23.6,26.3   c0.3,6.9-4.4,13.5-9.4,16.9c-8,5.5-11.3-2.1-11.3-2.1s-3.9,7.6-5.1,7.9c-11.3,2.3-26.2,5.2-38.4-4.2c11.1-9.8,17.3-16.2,17.3-16.2   s-11.7,4.2-20.3,11.7c-3-1.6-15.3-16.6-16.7-20.3c9.8-5.6,18.7-11.3,18.7-11.3s-12.6,2.5-22.9,6.4c-2.4-2-11.6-21.6-12.2-25   c6.2-3.2,16.1-8.1,16.1-8.1s-12.9,1.2-19.7,3.3c-2.1-8.1-1-14,0.1-17.3c-2-2.9,0.4-16.3-2.5-22.7c-13.8-30.2-22.6-25.9-36.5-36.6   c-6.3-4.9-11.4-25-11.4-25s-1.6,0.4-2.3,2.6s-1.6,6-1.6,6s-13.5-22.6-14.9-33.9C319.9,342.1,324.6,333.5,324.6,333.5z M404.8,412.4   c7.3,2.1,13.9,8.8,15.6,9c1.2,0.1,1.6-6.4,3.5-9.9c1.7-3.1,3.6-4.5,4.1-7.3c1.7-9.4,1.2-13.6-3.1-19.4c-5.5-7.5-7.4-11.6-23.2-14   c-9.1-1.4-31.3-6.1-31.3-6.1s2.4,8.8,9.1,15.8C389.2,390.6,392.2,408.9,404.8,412.4z M397.8,398.2c1.3-8.1,0-15.5,11.3-12.9   c6.1,1.4,11.3,5.8,11.3,12.9c0,7.1-5.1,12.9-11.3,12.9C402.9,411.2,396.7,405.3,397.8,398.2z M411.3,402.6c0.5,0,1-0.4,1-1   c0-0.5-0.4-1-1-1c-0.5,0-1,0.4-1,1C410.3,402.2,410.8,402.6,411.3,402.6z M407.3,403.3c0.6,0,1.1-0.7,1.1-1.5   c0-0.9-0.5-1.5-1.1-1.5s-1.1,0.7-1.1,1.5C406.1,402.6,406.6,403.3,407.3,403.3z M408.8,400.6c1.5,0,2.7-1.5,2.7-3.4   c0-1.9-1.2-3.4-2.7-3.4c-1.5,0-2.7,1.5-2.7,3.4C406.1,399.1,407.3,400.6,408.8,400.6z M535.6,466.7c-3-4.8-9.1-5.9-18-6.7   c-8.2-0.7-16.7-0.6-16.7-0.6s-8.5,0-16.7,0.6c-9,0.7-15,1.8-18,6.7c-3.5,5.5-5.1,17.3,14.7,30.4c1,0.7,1.6-2.1-1.4-5   c-4.7-4.5-7.1-19.1-4.2-18.3c7.1,2,14.7,14.7,11.7,24.1c-0.8,2.5,5,7,7.5,8c4,1.6,6.4,1.6,6.4,1.6s2.4,0,6.4-1.6   c2.5-1,8.3-5.5,7.5-8c-3-9.4,4.6-22.1,11.7-24.1c2.9-0.8,0.5,13.8-4.2,18.3c-3,2.9-2.4,5.6-1.4,5   C540.7,484,539.1,472.2,535.6,466.7z M761.9,341.6c1.3,12.9-1.3,25.2-3.7,27c-0.1-4.4-1.2-7.7-2.5-10.2c-1.9-3.7-4.3-5.3-4.3-5.3   s2.6,11-0.4,43.9c-1.9,20.8-14.6,41.8-14.6,41.8s0.4-8.5-3-18.9c-2.8-8.8-9.4-14.5-9.4-14.5s5.3,18.3,6,26.1   c5.6,58.9-40.6,89.9-40.6,89.9s1.1-7.1-1.4-19.9c-1.9-9.9-8.7-15.6-8.7-15.6c3.4,7.1,5.7,23.5,0.7,33.8c-4.3,9-9.9,12.9-19.3,22.2   c-10.3,10.3-33.7,20-33.7,20s1.4-13.4-0.5-16c0.2,2.7-6.2,18.4-13.9,22.1c-7.1,3.4-17.4,11.1-22.4,19.9c0.9-8.5,1.7-16.1,3-22.9   c-10.6,15.1-27.6,37.4-44.8,48.5c1.2-10.4,3.8-16.3,0-23.7c-2.1,19.3-23.8,37.8-23.8,37.8s4.6-20.9,2.4-31.5   c-15.3,42-26.2,49.6-26.2,49.6S490,638,474.7,596c-2.2,10.6,2.4,31.5,2.4,31.5s-21.7-18.5-23.8-37.8c-3.8,7.4-1.2,13.3,0,23.7   c-17.2-11.1-34.2-33.4-44.8-48.5c1.3,6.8,2.1,14.5,3,22.9c-4.9-8.8-15.2-16.5-22.4-19.9c-7.8-3.7-14.1-19.4-13.9-22.1   c-1.9,2.6-0.5,16-0.5,16s-23.4-9.7-33.7-20c-9.4-9.3-15-13.2-19.3-22.2c-4.9-10.4-2.7-26.7,0.7-33.8c0,0-6.8,5.7-8.7,15.6   c-2.5,12.8-1.4,19.9-1.4,19.9s-46.2-31-40.6-89.9c0.7-7.8,6-26.1,6-26.1s-6.5,5.8-9.4,14.5c-3.4,10.4-3,18.9-3,18.9   s-12.8-21-14.6-41.8c-3-32.9-0.4-43.9-0.4-43.9s-2.4,1.6-4.3,5.3c-1.3,2.6-2.4,5.9-2.5,10.2c-2.4-1.8-5.1-14.1-3.7-27   c1-9.7,4.1-11.5,4.1-11.5s15.4,8.3,23.1,22.2c15.1,27.5,38.2,32.7,44.7,34.8c0.8-5.9-10.3-25.1-7.8-38.7   c2.2-11.9,9.4-12.5,3.2-23.6c-3.8-6.7-19.4-12.1-33.8-15.8c-3.6-0.8-10.6-2.3-12.9-2.9c-8.9-2-14.5-2.3-18.9-7.9   c-4-5-3-10.1-3-10.1s8.7,3.7,17.8-2.2c11.7-7.5-2.5-20.2,17.6-38.2c12.4-11.1,28.7-8.8,28.7-8.8s-9.9-6.5-21.4-5.9   c-10.7,0.5-18.8,2.6-30.3,16.6c6.1-28.2,19.8-38.2,34.1-45.8c13.3-7.1,34.7-9.3,49.1-8.1c0,0-5.4-7.2-15.1-10.3   c-13.2-4.3-21.8-3.1-28.4-0.7c4.9-9.5,22.6-18.2,46.9-19.7c28.7-1.8,52.8,8.3,52.8,8.3s1.6-4.9-8-10.7c-12-7.2-27.6-8.3-34-6.1   c4.2-5.4,22.2-14.4,54.7-9.4c20,3.1,28.7,6.7,28.7,6.7s-0.3-5.6-5.1-9.4c-4.5-3.6-10.3-5.3-15.3-6.1c3.2-2.4,21.8-4.3,39.9-5.6   c22.8-1.6,49.5-1.7,49.5-1.7s26.7,0,49.5,1.7c18.1,1.3,36.7,3.2,39.9,5.6c-5,0.8-10.7,2.5-15.2,6.1c-4.8,3.8-5.1,9.4-5.1,9.4   s8.7-3.6,28.7-6.7c32.6-5.1,50.5,4,54.7,9.4c-6.5-2.2-22-1.1-34,6.1c-9.6,5.8-8,10.7-8,10.7s24.1-10.1,52.8-8.3   c24.2,1.5,42,10.2,46.9,19.7c-6.7-2.4-15.3-3.6-28.4,0.7c-9.7,3.2-15.1,10.3-15.1,10.3c14.4-1.2,35.8,1,49.1,8.1   c14.3,7.6,28,17.6,34.1,45.8c-11.5-13.9-19.6-16.1-30.3-16.6c-11.5-0.5-21.4,5.9-21.4,5.9s16.3-2.3,28.7,8.8   c20.1,18,5.9,30.6,17.6,38.2c9.1,5.9,17.8,2.2,17.8,2.2s1,5.1-3,10.1c-4.4,5.5-10,5.9-18.9,7.9c-2.3,0.5-9.4,2.1-12.9,2.9   c-14.4,3.7-30,9-33.8,15.8c-6.3,11.2,1,11.8,3.2,23.6c2.5,13.6-8.7,32.8-7.8,38.7c6.5-2.1,29.6-7.3,44.7-34.8   c7.7-13.9,23.1-22.2,23.1-22.2S760.9,331.9,761.9,341.6z M536.8,265.8l0.6,0c2.1-8.8,3.8-17.4,5.7-26c2-8.5,3.2-17.3,5.9-25.6   c2.5-8.4,6.3-16.2,11.2-23.6c4.8-7.3,10.6-14.2,17.3-20l-0.3-0.5c-7.3,5.3-13.6,11.7-19.3,18.8c-5.5,7.2-10.1,15.2-13.2,23.7   c-3.2,8.5-6,17.2-7.2,26.1C536.3,247.7,535.7,256.7,536.8,265.8z M519.4,391.5l0.6,0.1c3.8-16.5,8.1-32.8,13.3-48.7   c5.2-15.9,10.8-31.7,18.5-46.6c7.9-14.7,18.3-28,30.2-39.8c11.8-11.9,25-22.7,39.2-31.8l-0.3-0.5c-14.7,8.4-28.4,18.7-40.9,30.2   c-12.5,11.6-23.6,24.8-32.2,39.7c-8.4,14.9-15.4,30.7-20,47.1c-2.3,8.2-4.3,16.5-5.6,24.9C520.7,374.5,519.7,383,519.4,391.5z    M424.3,170.6c6.7,5.8,12.4,12.7,17.3,20c4.9,7.3,8.7,15.2,11.2,23.6c2.6,8.4,3.9,17.1,5.9,25.6c1.9,8.6,3.6,17.3,5.7,26l0.6,0   c1.1-9,0.5-18.1-0.6-27c-1.2-9-4-17.6-7.2-26.1c-3.1-8.6-7.7-16.6-13.2-23.7c-5.6-7.1-12-13.5-19.3-18.8L424.3,170.6z M380.6,224.7   c14.2,9.1,27.4,19.9,39.2,31.8c11.9,11.8,22.3,25.2,30.2,39.8c7.7,14.9,13.3,30.7,18.5,46.6c5.2,15.9,9.6,32.2,13.3,48.7l0.6-0.1   c-0.3-8.5-1.3-17-2.7-25.4c-1.4-8.4-3.4-16.7-5.6-24.9c-4.6-16.5-11.6-32.2-20-47.1c-8.7-14.9-19.8-28.1-32.2-39.7   c-12.5-11.5-26.2-21.7-40.9-30.2L380.6,224.7z M318.4,268.5c10.8,2.5,21.4,6.3,31,11.7c9.7,5.2,17.8,12.7,26.1,20.1   c8.2,7.4,16.1,15.3,24,23.4l0.5-0.3c-2.7-5-5.8-9.8-9.3-14.3c-3.4-4.6-7.2-8.9-11.2-12.9c-8-8.2-17.6-14.9-28-19.9   c-10.3-5.2-21.3-8.5-32.5-10.4c-11.2-1.8-22.6-2.4-33.9-1.2l0.1,0.6C296.3,264.6,307.5,266,318.4,268.5z M522.7,569.5   c-3.7,1.1-7.3,1.1-10.9,1.3c-3.6,0.1-7.2,0.1-10.9,0c0,0,0,0,0,0c0,0,0,0,0,0c-3.6,0-7.2,0.1-10.9,0c-3.6-0.2-7.2-0.2-10.9-1.3   c1.2,1.6,3,2.7,4.7,3.6c1.8,0.8,3.6,1.6,5.5,2c3.8,1,7.7,1.4,11.5,1.4c0,0,0,0,0,0c0,0,0,0,0,0c3.8,0,7.7-0.4,11.5-1.4   c1.9-0.5,3.8-1.2,5.5-2C519.7,572.2,521.5,571.1,522.7,569.5z M682.8,326.8c-16.3,0.2-25.3,1.1-42.3,4.3   c-25.2,4.7-35.2,9.3-53.9,17.7c-17.7,7.9-29.1,22.1-34.3,42.8c-0.9,3.7-1.9,7.8-2.8,12.1c0,0.1,0,0.2-0.1,0.3   c-0.2,0.9-0.4,1.9-0.6,2.8c0,0.2-0.1,0.5-0.1,0.7c-0.2,0.9-0.4,1.8-0.6,2.6c0,0.2-0.1,0.3-0.1,0.5c-0.2,1.1-0.4,2.1-0.7,3.2   c0,0.1-0.1,0.3-0.1,0.4c-0.2,1-0.4,1.9-0.6,2.9c-4.3,21.1-8,42.4-8,42.4s-1.9-2.2-4.9-3.2c2.9-19.7-0.6-34.8-0.6-34.8   s-2.5,30.7-4.4,33.6c-3.5-0.6-5.4-0.4-8.7-0.7c-3.8-0.3-6.3-0.2-9.6-0.4c0.4-4.7-1.4-8.3-1.4-8.3s-1.5,8.2-2.1,8.2   c-2.9,0.1-5.9-0.1-5.9-0.1l0,0c0,0-3.1,0.1-5.9,0.1c-0.6,0-2.1-8.2-2.1-8.2s-1.9,3.5-1.4,8.3c-3.3,0.2-5.8,0.2-9.6,0.4   c-3.4,0.2-5.3,0-8.7,0.7c-1.9-2.9-4.4-33.6-4.4-33.6s-3.5,15.1-0.6,34.8c-3,1-4.9,3.2-4.9,3.2s-3.7-21.3-8-42.4   c-0.2-1-0.4-2-0.6-2.9c0-0.1-0.1-0.3-0.1-0.4c-0.2-1.1-0.4-2.1-0.7-3.2c0-0.2-0.1-0.3-0.1-0.5c-0.2-0.9-0.4-1.8-0.6-2.6   c0-0.2-0.1-0.5-0.1-0.7c-0.2-0.9-0.4-1.9-0.6-2.8c0-0.1,0-0.2-0.1-0.3c-1-4.3-1.9-8.5-2.8-12.1c-5.2-20.7-16.7-34.9-34.3-42.8   c-18.7-8.4-28.7-13-53.9-17.7c-17-3.1-26-4-42.3-4.3c-9,22.5-4.2,44.1,10.6,66.2c6.3,9.4,8.3,18.3,16.3,27.2   c1.6,1.7,16.2,6.1,19.1,8.7c2.8,2.6,18.4,40,17.2,52c0.4,1.6,0.9,3.4,1.4,5.2c-4,1.1-12,3.5-19.9,6.1c-19,6.4-37.4,15.5-36.5,15.7   c0,0,22.3-6.2,35.5-10.3c10.1-3.1,18.2-4.9,22.6-5.8c2.5,8.1,5.9,17.2,10.3,25.7c-1.9,0.8-4.2,1.7-7.2,3.1   c-12.9,5.7-31.3,18.2-31.3,18.2s15.2-6,33.1-12.2c3.5-1.2,6.4-2.2,8.8-2.9c2.2,3.6,4.5,7,7.1,10c2.5,2.9,6.2,7.6,11.4,12.7   c-1.5,1-3,2-4,2.8c-4.2,3.2-16.9,15.3-16.9,15.3s13-7.1,17.9-10.1c2.5-1.5,4.9-3.1,6.9-4.4c5.7,4.9,12.9,10,22.2,14   c11.8,5.2,20.2-3.5,30.9-7.6c11.2-4.3,19.8-7.5,19.8-7.5l6.8-0.7l6.8,0.7c0,0,8.6,3.2,19.8,7.5c10.6,4.1,19,12.7,30.9,7.6   c9.3-4.1,16.5-9.1,22.2-14c2.1,1.3,4.5,2.9,6.9,4.4c4.9,3,17.9,10.1,17.9,10.1s-12.8-12.1-16.9-15.3c-1-0.8-2.5-1.8-4-2.8   c5.2-5.1,8.9-9.8,11.4-12.7c2.6-3,4.9-6.4,7.1-10c2.4,0.8,5.3,1.7,8.8,2.9c17.9,6.2,33.1,12.2,33.1,12.2s-18.4-12.6-31.3-18.2   c-3-1.3-5.3-2.3-7.2-3.1c4.4-8.5,7.8-17.7,10.3-25.7c4.4,0.8,12.5,2.6,22.6,5.8c13.2,4.1,35.5,10.3,35.5,10.3   c0.9-0.2-17.5-9.3-36.5-15.7c-7.9-2.7-15.9-5-19.9-6.1c0.5-1.8,1-3.6,1.4-5.2c-1.2-12,14.3-49.5,17.2-52c2.9-2.6,17.5-7,19.1-8.7   c8-8.9,10-17.8,16.3-27.2C687,370.9,691.8,349.4,682.8,326.8z M716.6,265l0.1-0.6c-11.3-1.2-22.6-0.6-33.9,1.2   c-11.2,2-22.2,5.3-32.5,10.4c-10.3,5.1-20,11.7-28,19.9c-4,4.1-7.8,8.4-11.2,12.9c-3.5,4.5-6.6,9.3-9.3,14.3l0.5,0.3   c7.9-8.1,15.7-16,24-23.4c8.3-7.3,16.4-14.8,26.1-20.1c9.6-5.4,20.1-9.2,31-11.7C694.2,266,705.4,264.6,716.6,265z"></path>
</g>
<g>
	<path class="st1" d="M115.2,810.8c-6.7,0-12-1.4-15.9-4.2s-6.7-6.8-8.4-12c-1.7-5.2-2.5-11.2-2.5-18v-33.1c0-7.1,0.9-13.2,2.6-18.3   c1.7-5.1,4.7-9.1,9-11.8c4.3-2.8,10.1-4.1,17.4-4.1c7.1,0,12.7,1.2,16.8,3.5c4.1,2.4,7.1,5.7,8.8,10c1.8,4.3,2.7,9.4,2.7,15.4v5.7   h-19.6v-7c0-2.6-0.2-4.9-0.5-6.9c-0.3-2-1.1-3.6-2.3-4.7c-1.2-1.1-3.1-1.7-5.7-1.7c-2.7,0-4.6,0.7-5.9,2.1c-1.2,1.4-2,3.2-2.3,5.3   c-0.3,2.2-0.5,4.5-0.5,6.9v43.8c0,2.8,0.2,5.2,0.7,7.4c0.5,2.2,1.4,3.9,2.7,5.1c1.3,1.2,3.3,1.8,5.8,1.8c2.5,0,4.5-0.7,5.9-2   c1.4-1.3,2.3-3.1,2.9-5.3c0.5-2.2,0.8-4.8,0.8-7.6v-10.5h-9.6v-12.2H146v50.8h-13.2l-1.2-8.9c-1.3,3-3.3,5.5-5.9,7.4   C123.1,809.8,119.6,810.8,115.2,810.8z"></path>
	<path class="st1" d="M187.4,810.6c-7.2,0-13-1.3-17.2-3.9c-4.2-2.6-7.3-6.3-9.1-11.2c-1.8-4.8-2.7-10.6-2.7-17.4v-36.9   c0-6.8,0.9-12.5,2.7-17.3c1.8-4.8,4.9-8.5,9.1-11c4.2-2.5,10-3.8,17.2-3.8c7.3,0,13.1,1.3,17.4,3.8s7.3,6.2,9.2,11   c1.8,4.8,2.7,10.5,2.7,17.3v36.9c0,6.8-0.9,12.6-2.7,17.4c-1.8,4.8-4.9,8.6-9.2,11.2C200.5,809.3,194.7,810.6,187.4,810.6z    M187.4,796.1c2.6,0,4.5-0.6,5.7-1.8s2-2.8,2.4-4.8c0.4-2,0.6-4.1,0.6-6.4v-46.7c0-2.3-0.2-4.4-0.6-6.3c-0.4-2-1.2-3.5-2.4-4.7   c-1.2-1.2-3.1-1.8-5.7-1.8c-2.4,0-4.3,0.6-5.5,1.8c-1.2,1.2-2,2.7-2.4,4.7c-0.4,2-0.6,4.1-0.6,6.3v46.7c0,2.3,0.2,4.4,0.5,6.4   c0.4,2,1.2,3.6,2.4,4.8C183,795.5,184.8,796.1,187.4,796.1z"></path>
	<path class="st1" d="M230.1,809.3v-98.8h24.2c8.4,0,14.9,1.1,19.6,3.2c4.7,2.2,8,5.5,9.9,10.1c2,4.6,2.9,10.5,2.9,17.6v36   c0,7.3-1,13.3-2.9,18.1c-2,4.7-5.2,8.2-9.8,10.4c-4.6,2.2-11,3.4-19.2,3.4H230.1z M250.2,795.3h4.3c3.7,0,6.4-0.6,8-1.8   c1.6-1.2,2.6-2.9,3-5.2c0.4-2.3,0.6-5.2,0.6-8.6v-40.8c0-3.4-0.3-6.2-0.8-8.2c-0.5-2.1-1.6-3.6-3.2-4.6c-1.6-1-4.2-1.5-7.7-1.5   h-4.1V795.3z"></path>
	<path class="st1" d="M327.6,810.6c-7.2,0-13-1.3-17.2-3.9c-4.2-2.6-7.3-6.3-9.1-11.2c-1.8-4.8-2.7-10.6-2.7-17.4v-36.9   c0-6.8,0.9-12.5,2.7-17.3c1.8-4.8,4.9-8.5,9.1-11c4.2-2.5,10-3.8,17.2-3.8c7.3,0,13.1,1.3,17.4,3.8s7.3,6.2,9.2,11   c1.8,4.8,2.7,10.5,2.7,17.3v36.9c0,6.8-0.9,12.6-2.7,17.4c-1.8,4.8-4.9,8.6-9.2,11.2C340.7,809.3,334.9,810.6,327.6,810.6z    M327.6,796.1c2.6,0,4.5-0.6,5.7-1.8s2-2.8,2.4-4.8c0.4-2,0.6-4.1,0.6-6.4v-46.7c0-2.3-0.2-4.4-0.6-6.3c-0.4-2-1.2-3.5-2.4-4.7   c-1.2-1.2-3.1-1.8-5.7-1.8c-2.4,0-4.3,0.6-5.5,1.8c-1.2,1.2-2,2.7-2.4,4.7c-0.4,2-0.6,4.1-0.6,6.3v46.7c0,2.3,0.2,4.4,0.5,6.4   c0.4,2,1.2,3.6,2.4,4.8C323.2,795.5,325.1,796.1,327.6,796.1z"></path>
	<path class="st1" d="M378.8,809.3v-83.8h-15.3v-15h50.5v15h-15v83.8H378.8z"></path>
	<path class="st1" d="M462.4,809.3l-12.8-98.8h17.1l6.8,60.4l8.7-60.3h13.5l9,60.2l6.8-60.3h16.8l-12.7,98.8h-17.1l-9.6-62.6   l-9.2,62.6H462.4z"></path>
	<path class="st1" d="M539.3,809.3v-98.8h20v98.8H539.3z"></path>
	<path class="st1" d="M574.5,809.3v-98.8h20.1v85.2h23.2v13.7H574.5z"></path>
	<path class="st1" d="M626.6,809.3v-98.8h24.2c8.4,0,14.9,1.1,19.6,3.2c4.7,2.2,8,5.5,9.9,10.1c2,4.6,2.9,10.5,2.9,17.6v36   c0,7.3-1,13.3-2.9,18.1c-2,4.7-5.2,8.2-9.8,10.4c-4.6,2.2-11,3.4-19.2,3.4H626.6z M646.7,795.3h4.3c3.7,0,6.4-0.6,8-1.8   c1.6-1.2,2.6-2.9,3-5.2c0.4-2.3,0.6-5.2,0.6-8.6v-40.8c0-3.4-0.3-6.2-0.8-8.2c-0.5-2.1-1.6-3.6-3.2-4.6c-1.6-1-4.2-1.5-7.7-1.5   h-4.1V795.3z"></path>
	<path class="st1" d="M721,811.9v-14.2c2.4,0,4.4-0.1,6-0.4c1.6-0.3,2.9-0.8,3.8-1.6c0.9-0.8,1.5-1.9,2-3.4c0.4-1.5,0.6-3.4,0.6-5.7   v-76.2h20.1v77c0,5.5-0.7,10-2,13.6c-1.3,3.6-3.6,6.3-6.9,8.1c-3.3,1.8-7.9,2.7-13.9,2.7H721z"></path>
	<path class="st1" d="M763.5,809.3l19.2-98.8H805l19,98.8h-18.7l-3.5-21.7h-15.6l-3.8,21.7H763.5z M788,775.3h11.8l-6-39.9   L788,775.3z"></path>
	<path class="st1" d="M833.7,809.3l1.7-98.8h21.4l12.2,62.4l13.1-62.4h20.6l1.7,98.8h-14.6l-1.6-67l-12.6,67h-12.6l-13.2-67.5   l-1.3,67.5H833.7z"></path>
</g>
<g>
	<path class="st2" d="M155.6,863.4c0.9,0,1.6-0.1,2.3-0.4c0.7-0.3,1.2-0.7,1.7-1.2c0.5-0.5,0.8-1.1,1.1-1.9c0.2-0.7,0.4-1.5,0.4-2.4   v-12.6h2.8v12.6c0,1.2-0.2,2.3-0.6,3.3c-0.4,1-0.9,1.9-1.6,2.7c-0.7,0.7-1.6,1.3-2.6,1.8c-1,0.4-2.2,0.6-3.5,0.6s-2.4-0.2-3.5-0.6   c-1-0.4-1.9-1-2.6-1.8c-0.7-0.7-1.3-1.6-1.6-2.7c-0.4-1-0.6-2.1-0.6-3.3v-12.6h2.8v12.6c0,0.9,0.1,1.7,0.4,2.4   c0.2,0.7,0.6,1.3,1.1,1.9c0.5,0.5,1,0.9,1.7,1.2C153.9,863.3,154.7,863.4,155.6,863.4z"></path>
	<path class="st2" d="M182.3,845c0.1,0.1,0.3,0.2,0.4,0.4l12,15.7c0-0.3,0-0.5-0.1-0.7c0-0.2,0-0.5,0-0.7v-14.7h2.5v20.8h-1.4   c-0.2,0-0.4,0-0.6-0.1c-0.1-0.1-0.3-0.2-0.4-0.4l-12-15.6c0,0.2,0,0.5,0,0.7c0,0.2,0,0.4,0,0.6v14.8h-2.5v-20.8h1.4   C182,844.9,182.1,844.9,182.3,845z"></path>
	<path class="st2" d="M216.6,863.3h9v2.4h-11.8v-20.8h2.8V863.3z"></path>
	<path class="st2" d="M253.1,844.9v2.3h-10v6.9h8.1v2.2h-8.1v7.1h10v2.3h-12.8v-20.8H253.1z"></path>
	<path class="st2" d="M285.8,865.6h-2.2c-0.3,0-0.5-0.1-0.6-0.2c-0.2-0.1-0.3-0.3-0.3-0.5l-1.9-5h-9.3l-1.9,5   c-0.1,0.2-0.2,0.3-0.3,0.5c-0.2,0.1-0.4,0.2-0.6,0.2h-2.2l8.3-20.8h2.9L285.8,865.6z M272.2,857.9h7.8l-3.3-8.5   c-0.2-0.5-0.4-1.2-0.6-2c-0.1,0.4-0.2,0.8-0.3,1.1c-0.1,0.3-0.2,0.6-0.3,0.9L272.2,857.9z"></path>
	<path class="st2" d="M310.7,848.1c-0.1,0.1-0.2,0.3-0.3,0.3s-0.2,0.1-0.4,0.1c-0.2,0-0.4-0.1-0.6-0.2c-0.2-0.2-0.5-0.3-0.8-0.5   c-0.3-0.2-0.7-0.4-1.2-0.5c-0.5-0.2-1-0.2-1.7-0.2c-0.6,0-1.2,0.1-1.7,0.3s-0.9,0.4-1.2,0.7c-0.3,0.3-0.6,0.6-0.7,1   c-0.2,0.4-0.2,0.8-0.2,1.3c0,0.6,0.1,1.1,0.4,1.4s0.7,0.7,1.1,1c0.5,0.3,1,0.5,1.6,0.7s1.2,0.4,1.8,0.6c0.6,0.2,1.2,0.5,1.8,0.7   c0.6,0.3,1.1,0.6,1.6,1c0.5,0.4,0.8,0.9,1.1,1.5s0.4,1.3,0.4,2.2c0,0.9-0.2,1.8-0.5,2.6c-0.3,0.8-0.8,1.5-1.4,2.1   c-0.6,0.6-1.3,1.1-2.2,1.4c-0.9,0.3-1.8,0.5-3,0.5c-1.3,0-2.6-0.2-3.7-0.7c-1.1-0.5-2.1-1.1-2.8-2l0.8-1.3c0.1-0.1,0.2-0.2,0.3-0.3   c0.1-0.1,0.2-0.1,0.4-0.1c0.2,0,0.4,0.1,0.7,0.3c0.3,0.2,0.6,0.5,1,0.7s0.9,0.5,1.4,0.7s1.2,0.3,2,0.3c0.7,0,1.3-0.1,1.8-0.3   c0.5-0.2,1-0.4,1.3-0.8c0.4-0.3,0.6-0.7,0.8-1.2c0.2-0.5,0.3-1,0.3-1.6c0-0.6-0.1-1.1-0.4-1.5c-0.3-0.4-0.7-0.7-1.1-1   s-1-0.5-1.6-0.7s-1.2-0.4-1.8-0.6c-0.6-0.2-1.2-0.4-1.8-0.7c-0.6-0.3-1.1-0.6-1.6-1c-0.5-0.4-0.8-0.9-1.1-1.6   c-0.3-0.6-0.4-1.4-0.4-2.3c0-0.7,0.1-1.4,0.4-2.1s0.7-1.3,1.2-1.8c0.5-0.5,1.2-1,2-1.3c0.8-0.3,1.7-0.5,2.7-0.5   c1.2,0,2.2,0.2,3.2,0.6c1,0.4,1.8,0.9,2.5,1.6L310.7,848.1z"></path>
	<path class="st2" d="M343.9,865.6H341v-9.5h-11.2v9.5H327v-20.8h2.8v9.3H341v-9.3h2.8V865.6z"></path>
	<path class="st2" d="M359.3,864c0-0.3,0-0.5,0.1-0.7c0.1-0.2,0.2-0.4,0.4-0.6c0.2-0.2,0.3-0.3,0.6-0.4c0.2-0.1,0.5-0.1,0.7-0.1   c0.3,0,0.5,0,0.7,0.1c0.2,0.1,0.4,0.2,0.6,0.4c0.2,0.2,0.3,0.4,0.4,0.6c0.1,0.2,0.1,0.5,0.1,0.7c0,0.3,0,0.5-0.1,0.7   c-0.1,0.2-0.2,0.4-0.4,0.6c-0.2,0.2-0.4,0.3-0.6,0.4c-0.2,0.1-0.5,0.1-0.7,0.1c-0.3,0-0.5,0-0.7-0.1s-0.4-0.2-0.6-0.4   c-0.2-0.2-0.3-0.4-0.4-0.6C359.3,864.5,359.3,864.3,359.3,864z"></path>
	<path class="st2" d="M413.5,855.3c0,1.6-0.2,3-0.7,4.2c-0.5,1.3-1.2,2.4-2.1,3.3c-0.9,0.9-2,1.6-3.2,2.1c-1.3,0.5-2.6,0.7-4.2,0.7   h-7.8v-20.8h7.8c1.5,0,2.9,0.2,4.2,0.7c1.3,0.5,2.3,1.2,3.2,2.1c0.9,0.9,1.6,2,2.1,3.3C413.3,852.3,413.5,853.7,413.5,855.3z    M410.6,855.3c0-1.3-0.2-2.4-0.5-3.4c-0.3-1-0.8-1.9-1.5-2.6c-0.6-0.7-1.4-1.2-2.3-1.6c-0.9-0.4-1.9-0.6-3-0.6h-4.9v16.2h4.9   c1.1,0,2.1-0.2,3-0.6c0.9-0.4,1.7-0.9,2.3-1.6s1.1-1.5,1.5-2.5C410.4,857.7,410.6,856.5,410.6,855.3z"></path>
	<path class="st2" d="M432.3,865.6h-2.8v-20.8h2.8V865.6z"></path>
	<path class="st2" d="M460.1,848.1c-0.1,0.1-0.2,0.3-0.3,0.3s-0.2,0.1-0.4,0.1c-0.2,0-0.4-0.1-0.6-0.2c-0.2-0.2-0.5-0.3-0.8-0.5   c-0.3-0.2-0.7-0.4-1.2-0.5c-0.5-0.2-1-0.2-1.7-0.2c-0.6,0-1.2,0.1-1.7,0.3s-0.9,0.4-1.2,0.7c-0.3,0.3-0.6,0.6-0.7,1   c-0.2,0.4-0.2,0.8-0.2,1.3c0,0.6,0.1,1.1,0.4,1.4s0.7,0.7,1.1,1c0.5,0.3,1,0.5,1.6,0.7s1.2,0.4,1.8,0.6c0.6,0.2,1.2,0.5,1.8,0.7   c0.6,0.3,1.1,0.6,1.6,1c0.5,0.4,0.8,0.9,1.1,1.5s0.4,1.3,0.4,2.2c0,0.9-0.2,1.8-0.5,2.6c-0.3,0.8-0.8,1.5-1.4,2.1   c-0.6,0.6-1.3,1.1-2.2,1.4c-0.9,0.3-1.8,0.5-3,0.5c-1.3,0-2.6-0.2-3.7-0.7c-1.1-0.5-2.1-1.1-2.8-2l0.8-1.3c0.1-0.1,0.2-0.2,0.3-0.3   c0.1-0.1,0.2-0.1,0.4-0.1c0.2,0,0.4,0.1,0.7,0.3c0.3,0.2,0.6,0.5,1,0.7s0.9,0.5,1.4,0.7s1.2,0.3,2,0.3c0.7,0,1.3-0.1,1.8-0.3   c0.5-0.2,1-0.4,1.3-0.8c0.4-0.3,0.6-0.7,0.8-1.2c0.2-0.5,0.3-1,0.3-1.6c0-0.6-0.1-1.1-0.4-1.5c-0.3-0.4-0.7-0.7-1.1-1   s-1-0.5-1.6-0.7s-1.2-0.4-1.8-0.6c-0.6-0.2-1.2-0.4-1.8-0.7c-0.6-0.3-1.1-0.6-1.6-1c-0.5-0.4-0.8-0.9-1.1-1.6   c-0.3-0.6-0.4-1.4-0.4-2.3c0-0.7,0.1-1.4,0.4-2.1s0.7-1.3,1.2-1.8c0.5-0.5,1.2-1,2-1.3c0.8-0.3,1.7-0.5,2.7-0.5   c1.2,0,2.2,0.2,3.2,0.6c1,0.4,1.8,0.9,2.5,1.6L460.1,848.1z"></path>
	<path class="st2" d="M491,861.3c0.2,0,0.3,0.1,0.4,0.2l1.1,1.2c-0.9,1-1.9,1.8-3.1,2.3s-2.7,0.8-4.4,0.8c-1.5,0-2.9-0.3-4.1-0.8   c-1.2-0.5-2.3-1.2-3.1-2.2s-1.5-2.1-2-3.4c-0.5-1.3-0.7-2.7-0.7-4.3c0-1.6,0.3-3,0.8-4.3s1.2-2.4,2.1-3.4c0.9-0.9,2-1.7,3.3-2.2   c1.3-0.5,2.7-0.8,4.2-0.8c1.5,0,2.8,0.2,4,0.7c1.1,0.5,2.1,1.1,3,1.9l-0.9,1.3c-0.1,0.1-0.1,0.2-0.2,0.2c-0.1,0.1-0.2,0.1-0.4,0.1   c-0.1,0-0.3,0-0.4-0.1c-0.1-0.1-0.3-0.2-0.5-0.3c-0.2-0.1-0.4-0.3-0.7-0.4c-0.3-0.2-0.6-0.3-0.9-0.4c-0.4-0.1-0.8-0.2-1.2-0.3   s-1-0.1-1.6-0.1c-1.1,0-2.1,0.2-3.1,0.6c-0.9,0.4-1.7,0.9-2.4,1.6c-0.7,0.7-1.2,1.6-1.6,2.6c-0.4,1-0.6,2.2-0.6,3.4   c0,1.3,0.2,2.5,0.6,3.5c0.4,1,0.9,1.9,1.5,2.6c0.6,0.7,1.4,1.2,2.3,1.6c0.9,0.4,1.8,0.6,2.8,0.6c0.6,0,1.2,0,1.7-0.1   c0.5-0.1,1-0.2,1.4-0.3c0.4-0.2,0.8-0.4,1.2-0.6c0.4-0.2,0.7-0.5,1.1-0.8C490.7,861.4,490.9,861.3,491,861.3z"></path>
	<path class="st2" d="M527.2,855.3c0,1.6-0.2,3-0.7,4.3c-0.5,1.3-1.2,2.4-2.1,3.4s-2,1.7-3.2,2.2c-1.3,0.5-2.7,0.8-4.2,0.8   s-2.9-0.3-4.2-0.8c-1.3-0.5-2.3-1.2-3.2-2.2c-0.9-0.9-1.6-2.1-2.1-3.4c-0.5-1.3-0.7-2.7-0.7-4.3s0.2-3,0.7-4.3   c0.5-1.3,1.2-2.4,2.1-3.4c0.9-0.9,2-1.7,3.2-2.2c1.3-0.5,2.6-0.8,4.2-0.8s2.9,0.3,4.2,0.8c1.3,0.5,2.3,1.3,3.2,2.2   c0.9,0.9,1.6,2.1,2.1,3.4C526.9,852.3,527.2,853.7,527.2,855.3z M524.3,855.3c0-1.3-0.2-2.4-0.5-3.4c-0.3-1-0.8-1.9-1.5-2.6   c-0.6-0.7-1.4-1.2-2.3-1.6s-1.9-0.6-3-0.6c-1.1,0-2.1,0.2-3,0.6c-0.9,0.4-1.7,0.9-2.3,1.6c-0.6,0.7-1.1,1.6-1.5,2.6   c-0.3,1-0.5,2.2-0.5,3.4c0,1.3,0.2,2.4,0.5,3.4c0.3,1,0.8,1.9,1.5,2.6c0.6,0.7,1.4,1.2,2.3,1.6c0.9,0.4,1.9,0.6,3,0.6   c1.1,0,2.1-0.2,3-0.6s1.7-0.9,2.3-1.6c0.6-0.7,1.1-1.6,1.5-2.6C524.1,857.7,524.3,856.5,524.3,855.3z"></path>
	<path class="st2" d="M539.4,844.9h2.2c0.3,0,0.5,0.1,0.6,0.2c0.2,0.1,0.3,0.3,0.3,0.5l5.9,14.7c0.1,0.3,0.3,0.7,0.4,1.1   s0.2,0.8,0.3,1.2c0.1-0.4,0.2-0.8,0.3-1.2s0.2-0.7,0.4-1.1l5.8-14.7c0.1-0.2,0.2-0.3,0.3-0.5c0.2-0.1,0.4-0.2,0.6-0.2h2.3   l-8.5,20.8h-2.5L539.4,844.9z"></path>
	<path class="st2" d="M586,844.9v2.3h-10v6.9h8.1v2.2H576v7.1h10v2.3h-12.8v-20.8H586z"></path>
	<path class="st2" d="M604.7,857v8.7h-2.8v-20.8h5.9c1.3,0,2.4,0.1,3.4,0.4c1,0.3,1.7,0.7,2.4,1.2c0.6,0.5,1.1,1.1,1.4,1.8   c0.3,0.7,0.4,1.5,0.4,2.4c0,0.7-0.1,1.4-0.3,2.1s-0.6,1.2-1,1.7c-0.4,0.5-1,0.9-1.6,1.3c-0.6,0.4-1.4,0.6-2.2,0.8   c0.3,0.2,0.7,0.5,0.9,0.9l6.1,8.3h-2.5c-0.5,0-0.9-0.2-1.1-0.6l-5.4-7.4c-0.2-0.2-0.3-0.4-0.5-0.5s-0.5-0.2-0.9-0.2H604.7z    M604.7,854.9h2.9c0.8,0,1.5-0.1,2.2-0.3s1.1-0.5,1.6-0.8c0.4-0.4,0.7-0.8,0.9-1.3s0.3-1.1,0.3-1.7c0-1.2-0.4-2.2-1.2-2.8   c-0.8-0.6-2-0.9-3.6-0.9h-3.1V854.9z"></path>
	<path class="st2" d="M630.7,864c0-0.3,0-0.5,0.1-0.7c0.1-0.2,0.2-0.4,0.4-0.6c0.2-0.2,0.3-0.3,0.6-0.4c0.2-0.1,0.5-0.1,0.7-0.1   s0.5,0,0.7,0.1c0.2,0.1,0.4,0.2,0.6,0.4c0.2,0.2,0.3,0.4,0.4,0.6c0.1,0.2,0.1,0.5,0.1,0.7c0,0.3,0,0.5-0.1,0.7   c-0.1,0.2-0.2,0.4-0.4,0.6c-0.2,0.2-0.4,0.3-0.6,0.4s-0.5,0.1-0.7,0.1s-0.5,0-0.7-0.1s-0.4-0.2-0.6-0.4c-0.2-0.2-0.3-0.4-0.4-0.6   C630.7,864.5,630.7,864.3,630.7,864z"></path>
	<path class="st2" d="M679.6,844.9v2.3h-10v6.9h8.1v2.2h-8.1v7.1h10v2.3h-12.8v-20.8H679.6z"></path>
	<path class="st2" d="M692.9,844.9h2.2c0.3,0,0.5,0.1,0.6,0.2s0.3,0.3,0.3,0.5l5.9,14.7c0.1,0.3,0.3,0.7,0.4,1.1s0.2,0.8,0.3,1.2   c0.1-0.4,0.2-0.8,0.3-1.2s0.2-0.7,0.4-1.1l5.8-14.7c0.1-0.2,0.2-0.3,0.3-0.5c0.2-0.1,0.4-0.2,0.6-0.2h2.3l-8.5,20.8h-2.5   L692.9,844.9z"></path>
	<path class="st2" d="M745.2,855.3c0,1.6-0.2,3-0.7,4.3c-0.5,1.3-1.2,2.4-2.1,3.4c-0.9,0.9-2,1.7-3.2,2.2c-1.3,0.5-2.7,0.8-4.2,0.8   s-2.9-0.3-4.2-0.8c-1.3-0.5-2.3-1.2-3.2-2.2s-1.6-2.1-2.1-3.4c-0.5-1.3-0.7-2.7-0.7-4.3s0.2-3,0.7-4.3c0.5-1.3,1.2-2.4,2.1-3.4   c0.9-0.9,2-1.7,3.2-2.2c1.3-0.5,2.7-0.8,4.2-0.8s2.9,0.3,4.2,0.8c1.3,0.5,2.3,1.3,3.2,2.2c0.9,0.9,1.6,2.1,2.1,3.4   C744.9,852.3,745.2,853.7,745.2,855.3z M742.3,855.3c0-1.3-0.2-2.4-0.5-3.4c-0.3-1-0.8-1.9-1.5-2.6c-0.6-0.7-1.4-1.2-2.3-1.6   c-0.9-0.4-1.9-0.6-3-0.6c-1.1,0-2.1,0.2-3,0.6s-1.7,0.9-2.3,1.6c-0.6,0.7-1.1,1.6-1.5,2.6c-0.3,1-0.5,2.2-0.5,3.4   c0,1.3,0.2,2.4,0.5,3.4c0.3,1,0.8,1.9,1.5,2.6c0.6,0.7,1.4,1.2,2.3,1.6s1.9,0.6,3,0.6c1.1,0,2.1-0.2,3-0.6c0.9-0.4,1.7-0.9,2.3-1.6   c0.6-0.7,1.1-1.6,1.5-2.6C742.1,857.7,742.3,856.5,742.3,855.3z"></path>
	<path class="st2" d="M763.4,863.3h9v2.4h-11.8v-20.8h2.8V863.3z"></path>
	<path class="st2" d="M782.1,844.9h2.2c0.3,0,0.5,0.1,0.6,0.2s0.3,0.3,0.3,0.5l5.9,14.7c0.1,0.3,0.3,0.7,0.4,1.1s0.2,0.8,0.3,1.2   c0.1-0.4,0.2-0.8,0.3-1.2s0.2-0.7,0.4-1.1l5.8-14.7c0.1-0.2,0.2-0.3,0.3-0.5c0.2-0.1,0.4-0.2,0.6-0.2h2.3l-8.5,20.8h-2.5   L782.1,844.9z"></path>
	<path class="st2" d="M828.6,844.9v2.3h-10v6.9h8.1v2.2h-8.1v7.1h10v2.3h-12.8v-20.8H828.6z"></path>
	<path class="st2" d="M843,864c0-0.3,0-0.5,0.1-0.7c0.1-0.2,0.2-0.4,0.4-0.6c0.2-0.2,0.3-0.3,0.6-0.4c0.2-0.1,0.5-0.1,0.7-0.1   c0.2,0,0.5,0,0.7,0.1c0.2,0.1,0.4,0.2,0.6,0.4c0.2,0.2,0.3,0.4,0.4,0.6c0.1,0.2,0.1,0.5,0.1,0.7c0,0.3,0,0.5-0.1,0.7   c-0.1,0.2-0.2,0.4-0.4,0.6c-0.2,0.2-0.4,0.3-0.6,0.4c-0.2,0.1-0.5,0.1-0.7,0.1c-0.3,0-0.5,0-0.7-0.1s-0.4-0.2-0.6-0.4   c-0.2-0.2-0.3-0.4-0.4-0.6C843,864.5,843,864.3,843,864z"></path>
</g>
</svg>